# xmcd CD database file
#
# Track frame offsets:
#	150
#	23890
#	46888
#	70832
#	94837
#	118252
#	142337
#	165883
#	190342
#	214484
#	235771
#	259004
#
# Disc length: 3776 seconds
#
# Revision: 0
# Processed by: cddbd v1.5.1PL0 Copyright (c) Steve Scherf et al.
# Submitted via: CDex 1.51
#
DISCID=ae0ebe0c
DTITLE=Kevin Kendal - Distant Horizons Vol 1 (Music for Reiki)
DYEAR=2004
DGENRE=New Age
TTITLE0=The Sun Descending
TTITLE1=On the River
TTITLE2=Keeper's Cottage
TTITLE3=The Willow
TTITLE4=Twilight Plough
TTITLE5=Rooks Return
TTITLE6=North Star
TTITLE7=Fading Light
TTITLE8=Homeward
TTITLE9=Lagoon by Moonlight
TTITLE10=Evening Reflections
TTITLE11=The Moon Rising
EXTD=YEAR: 2004
EXTT0=
EXTT1=
EXTT2=
EXTT3=
EXTT4=
EXTT5=
EXTT6=
EXTT7=
EXTT8=
EXTT9=
EXTT10=
EXTT11=
PLAYORDER=
